<svg xmlns="http://www.w3.org/2000/svg" width="20" height="15" viewBox="0 0 20 15">
  <path fill="#4B4B4B" fill-rule="evenodd" d="M178.008161,11.6873593 L172.280504,15.0206926 C172.229592,15.0503896 172.172315,15.0649351 172.114402,15.0649351 C172.060944,15.0649351 172.007486,15.0522078 171.959119,15.0261472 C171.858567,14.9728139 171.796199,14.8716017 171.796199,14.7619048 L171.796199,8.0952381 C171.796199,7.98614719 171.858567,7.88493506 171.959119,7.83099567 C172.059671,7.77766234 172.182498,7.77948052 172.280504,7.83645022 L178.008161,11.1697835 C178.102349,11.2249351 178.160262,11.3231169 178.160262,11.4285714 C178.160262,11.534632 178.102349,11.6322078 178.008161,11.6873593 M181.26147,5.1752381 C180.779074,5.13705628 180.310679,5.09584416 179.846102,5.0552381 C178.132897,4.904329 176.515152,4.76190476 174.341824,4.76190476 C172.24232,4.76190476 170.481384,4.91402597 168.778997,5.0612987 C168.329694,5.10008658 167.879755,5.13887446 167.422179,5.1752381 C165.949535,5.29281385 164.79573,6.48614719 164.79573,7.89341991 L164.79573,14.964329 C164.79573,16.3709957 165.949535,17.5649351 167.422179,17.6819048 C167.900756,17.7200866 168.365333,17.7606926 168.827364,17.8012987 C170.553298,17.9522078 172.183771,18.0952381 174.341824,18.0952381 C176.560973,18.0952381 178.141806,17.954632 179.816828,17.8061472 C180.288405,17.7637229 180.765709,17.7219048 181.26147,17.6819048 C182.73475,17.5649351 183.887918,16.3709957 183.887918,14.964329 L183.887918,7.89341991 C183.887918,6.48614719 182.73475,5.29281385 181.26147,5.1752381" transform="translate(-164 -4)"/>
</svg>
