<svg xmlns="http://www.w3.org/2000/svg" width="17" height="20" viewBox="0 0 17 20">
  <path fill="#4B4B4B" fill-rule="evenodd" d="M8.37391654,4.76190476 C8.2988943,4.76190476 8.22521174,4.73673472 8.16559585,4.68843544 C8.08655456,4.62380965 8.03966566,4.5272111 8.03899582,4.4244901 C8.02024026,2.2748322 9.47111682,0.499323619 11.6507809,0.00816760468 C11.7485777,-0.0142813544 11.8524031,0.0102084191 11.9314444,0.0734736675 C12.0104857,0.138099459 12.0573746,0.23469801 12.0580445,0.337419005 C12.0768,2.48707691 10.6259235,4.26258549 8.44625942,4.7537415 C8.42281497,4.75918368 8.39803083,4.76190476 8.37391654,4.76190476 Z M15.8606833,13.2304762 C16.0268199,13.2895238 16.1152474,13.4609524 16.0623249,13.6209524 C15.1874283,16.288254 13.4630914,19.047619 12.0931346,19.047619 C11.0253052,19.047619 10.3875551,18.8520635 9.8248345,18.6780952 C9.36125987,18.5352381 8.96132627,18.4126984 8.37381912,18.4126984 C7.7896615,18.4126984 7.41987364,18.5346032 6.99180401,18.6761905 C6.46458836,18.8507937 5.86636272,19.047619 4.79518378,19.047619 C3.03400214,19.047619 -4.08562073e-14,14.7371429 -4.08562073e-14,10.3250794 C-4.08562073e-14,4.91809524 4.20901644,4.76190476 4.68933871,4.76190476 C5.47915733,4.76190476 6.05058674,5.01269841 6.6032588,5.25460317 C7.14186285,5.49142857 7.65099105,5.71428571 8.37381912,5.71428571 C9.09597728,5.71428571 9.60510548,5.49142857 10.1437095,5.25460317 C10.6970515,5.01269841 11.2684809,4.76190476 12.0582995,4.76190476 C13.0470801,4.76190476 14.4712992,5.14984127 15.5022839,6.24 C15.571954,6.31301587 15.6014299,6.41269841 15.5826725,6.50920635 C15.5639152,6.60634921 15.4982644,6.68888889 15.4058175,6.73460317 C14.1671621,7.33650794 13.3981106,8.52698413 13.3981106,9.84126984 C13.3981106,10.92 13.9152777,11.9225397 14.8169705,12.5904762 C14.8250094,12.5968254 14.8330482,12.6038095 14.8410871,12.6101587 C15.1546029,12.8920635 15.4975945,13.1003175 15.8606833,13.2304762 Z"/>
</svg>
