<svg xmlns="http://www.w3.org/2000/svg" width="19" height="18" viewBox="0 0 19 18">
  <path fill="#4B4B4B" fill-rule="evenodd" d="M212.777414,2.85714286 C215.132169,2.85714286 217.048035,4.67296703 217.048035,6.9047619 L217.048035,15 C217.048035,17.2317949 215.132169,19.047619 212.777414,19.047619 L204.236172,19.047619 C201.881417,19.047619 199.965551,17.2317949 199.965551,15 L199.965551,6.9047619 C199.965551,4.67296703 201.881417,2.85714286 204.236172,2.85714286 L212.777414,2.85714286 Z M208.506793,15.9340659 C211.046822,15.9340659 213.105923,13.9824866 213.105923,11.5750916 C213.105923,9.16769651 211.046822,7.21611722 208.506793,7.21611722 C205.966763,7.21611722 203.907662,9.16769651 203.907662,11.5750916 C203.907662,13.9824866 205.966763,15.9340659 208.506793,15.9340659 Z M213.762942,4.72527473 C213.038907,4.72527473 212.448905,5.28446886 212.448905,5.97069597 C212.448905,6.65692308 213.038907,7.21611722 213.762942,7.21611722 C214.486976,7.21611722 215.076979,6.65692308 215.076979,5.97069597 C215.076979,5.28446886 214.486976,4.72527473 213.762942,4.72527473 Z" transform="translate(-199 -2)"/>
</svg>
