<svg xmlns="http://www.w3.org/2000/svg" width="18" height="20" viewBox="0 0 18 20">
  <path fill="#4B4B4B" fill-rule="evenodd" d="M39.2548502,3.66683269 C39.2548502,3.48283269 39.0954137,3.33349936 38.8989651,3.33349936 C38.7025166,3.33349936 38.54308,3.48283269 38.54308,3.66683269 C38.54308,3.85083269 38.7025166,4.00016603 38.8989651,4.00016603 C39.0954137,4.00016603 39.2548502,3.85083269 39.2548502,3.66683269 Z M42.457816,3.33349936 C42.2613674,3.33349936 42.1019309,3.48283269 42.1019309,3.66683269 C42.1019309,3.85083269 42.2613674,4.00016603 42.457816,4.00016603 C42.6542646,4.00016603 42.8137011,3.85083269 42.8137011,3.66683269 C42.8137011,3.48283269 42.6542646,3.33349936 42.457816,3.33349936 Z M35.7152171,5.64149936 C35.8412005,4.09149936 36.7864313,2.76016603 38.1295416,2.00283269 L37.1700754,0.505499361 C37.069004,0.347499361 37.1238103,0.142166027 37.2924998,0.0474993606 C37.4611894,-0.047167306 37.6797028,0.00416602731 37.7807742,0.161499361 L38.7651523,1.69883269 C39.3573451,1.46483269 40.0029207,1.33349936 40.6783906,1.33349936 C41.3538605,1.33349936 41.999436,1.46483269 42.5916288,1.69883269 L43.576007,0.161499361 C43.6770783,0.00416602731 43.8955918,-0.047167306 44.0642813,0.0474993606 C44.2329708,0.142166027 44.2877771,0.347499361 44.1867058,0.505499361 L43.2272396,2.00283269 C44.5703499,2.76016603 45.5155807,4.09149936 45.641564,5.64149936 C45.6493935,5.73416603 45.6152285,5.82549936 45.5476103,5.89349936 C45.480704,5.96083269 45.3860385,6.00016603 45.2871025,6.00016603 L36.0696787,6.00016603 C35.9707426,6.00016603 35.8760772,5.96083269 35.8091708,5.89349936 C35.7415526,5.82549936 35.7073877,5.73416603 35.7152171,5.64149936 Z M45.3230127,6.66666667 C45.5194613,6.66666667 45.6788978,6.816 45.6788978,7 L45.6788978,14.6666667 C45.6788978,15.4026667 45.0404399,16 44.2553574,16 L44.2553574,18.6666667 C44.2553574,19.4026667 43.6168996,20 42.8318171,20 C42.0467346,20 41.4082767,19.4026667 41.4082767,18.6666667 L41.4082767,16 L39.9847364,16 L39.9847364,18.6666667 C39.9847364,19.4026667 39.3462785,20 38.561196,20 C37.7761135,20 37.1376557,19.4026667 37.1376557,18.6666667 L37.1376557,16 C36.3525732,16 35.7141153,15.4026667 35.7141153,14.6666667 L35.7141153,7 C35.7141153,6.816 35.8735518,6.66666667 36.0700004,6.66666667 L45.3230127,6.66666667 Z M33.5788048,6.66666667 C34.3638873,6.66666667 35.0023451,7.264 35.0023451,8 L35.0023451,12.6666667 C35.0023451,13.4026667 34.3638873,14 33.5788048,14 C32.7937223,14 32.1552644,13.4026667 32.1552644,12.6666667 L32.1552644,8 C32.1552644,7.264 32.7937223,6.66666667 33.5788048,6.66666667 Z M47.8142083,6.66666667 C48.5992908,6.66666667 49.2377487,7.264 49.2377487,8 L49.2377487,12.6666667 C49.2377487,13.4026667 48.5992908,14 47.8142083,14 C47.0291258,14 46.390668,13.4026667 46.390668,12.6666667 L46.390668,8 C46.390668,7.264 47.0291258,6.66666667 47.8142083,6.66666667 Z" transform="translate(-32)"/>
</svg>
