<svg xmlns="http://www.w3.org/2000/svg" width="20" height="16" viewBox="0 0 20 16">
  <path fill="#4B4B4B" fill-rule="evenodd" d="M116.48154,5.54404762 C116.38608,5.44404762 116.229524,5.4172619 116.101607,5.47678571 C115.952052,5.54702381 115.621121,5.64642857 115.259007,5.7327381 C115.626212,5.33809524 115.932959,4.86071429 116.055149,4.43928571 C116.090151,4.31845238 116.041148,4.19107143 115.932959,4.11845238 C115.823498,4.04583333 115.678397,4.0452381 115.568936,4.11547619 C115.32392,4.27142857 114.172664,4.72916667 113.458617,4.86190476 C112.572106,4.13511905 111.69323,3.80952381 110.627889,3.80952381 C109.839383,3.80952381 109.106881,4.0125 108.253462,4.4672619 C106.732455,5.27797619 106.502076,7.06190476 106.633176,8.1077381 C102.427813,7.7797619 100.071206,5.58809524 99.2387881,4.63869048 C99.1732384,4.56428571 99.0726864,4.52202381 98.9702252,4.53035714 C98.8671277,4.5375 98.7742125,4.58988095 98.7207545,4.67261905 C98.1658095,5.52619048 98.012436,6.48392857 98.2784532,7.44166667 C98.4451913,8.0422619 98.7570296,8.57083333 99.1083251,8.98392857 C98.8531267,8.85952381 98.6023832,8.70119048 98.3879148,8.54166667 C98.2924541,8.4702381 98.1613547,8.4577381 98.0518931,8.50654762 C97.941795,8.55654762 97.8717905,8.66011905 97.8717905,8.77440476 C97.8717905,10.5065476 99.1204168,11.6886905 100.196577,12.272619 C99.9591983,12.2339286 99.7122733,12.1714286 99.4850767,12.1083333 C99.3647962,12.075 99.2349696,12.110119 99.1535098,12.1988095 C99.0714136,12.2869048 99.0529579,12.4125 99.1051431,12.5184524 C99.7644585,13.8482143 101.09709,14.827381 102.57164,15.1214286 C101.297558,15.8654762 99.490168,16.2369048 97.8246966,16.060119 C97.6757778,16.0464286 97.5319503,16.1309524 97.4854928,16.2666667 C97.4396716,16.4017857 97.5026757,16.5488095 97.6363207,16.6172619 C99.5754462,17.6119048 101.589667,18.0952381 103.793537,18.0952381 L103.807538,18.0952381 C106.911921,18.0928571 109.801199,16.8511905 111.942065,14.6 C113.883099,12.5595238 114.89371,9.97261905 114.670332,7.64345238 C115.19473,7.29702381 116.011874,6.62619048 116.511451,5.9047619 C116.589729,5.7922619 116.577637,5.64404762 116.48154,5.54404762" transform="translate(-97 -3)"/>
</svg>
